<?xml version="1.0" encoding="UTF-8" standalone="no"?>
<!-- Created with Inkscape (http://www.inkscape.org/) -->

<svg
   xmlns:dc="http://purl.org/dc/elements/1.1/"
   xmlns:cc="http://creativecommons.org/ns#"
   xmlns:rdf="http://www.w3.org/1999/02/22-rdf-syntax-ns#"
   xmlns:svg="http://www.w3.org/2000/svg"
   xmlns="http://www.w3.org/2000/svg"
   xmlns:sodipodi="http://sodipodi.sourceforge.net/DTD/sodipodi-0.dtd"
   xmlns:inkscape="http://www.inkscape.org/namespaces/inkscape"
   width="197"
   height="197"
   id="svg2"
   version="1.1"
   inkscape:version="0.48.2 r9819"
   sodipodi:docname="VPE_logo.svg">
  <defs
     id="defs4" />
  <sodipodi:namedview
     id="base"
     pagecolor="#ffffff"
     bordercolor="#666666"
     borderopacity="1.0"
     inkscape:pageopacity="0.0"
     inkscape:pageshadow="2"
     inkscape:zoom="4"
     inkscape:cx="138.46131"
     inkscape:cy="107.32337"
     inkscape:document-units="px"
     inkscape:current-layer="layer1"
     showgrid="false"
     inkscape:window-width="1920"
     inkscape:window-height="1148"
     inkscape:window-x="1912"
     inkscape:window-y="-8"
     inkscape:window-maximized="1">
    <inkscape:grid
       type="xygrid"
       id="grid3759"
       empspacing="5"
       visible="true"
       enabled="true"
       snapvisiblegridlinesonly="true" />
  </sodipodi:namedview>
  <metadata
     id="metadata7">
    <rdf:RDF>
      <cc:Work
         rdf:about="">
        <dc:format>image/svg+xml</dc:format>
        <dc:type
           rdf:resource="http://purl.org/dc/dcmitype/StillImage" />
        <dc:title />
      </cc:Work>
    </rdf:RDF>
  </metadata>
  <g
     inkscape:label="Layer 1"
     inkscape:groupmode="layer"
     id="layer1"
     transform="translate(0,-855.36217)">
    <g
       id="g3016">
      <path
         inkscape:export-ydpi="300.13257"
         inkscape:export-xdpi="300.13257"
         inkscape:export-filename="C:\Users\Chris\Pictures\constuff\VPE\VPE_logo2.png"
         id="path4269"
         d="m 195.5001,953.86222 c 0,53.57158 -43.4284,96.99998 -97,96.99998 -53.5717,0 -97.0001,-43.4284 -97.0001,-96.99998 0,-53.57163 43.4284,-97.00001 97.0001,-97.00001 53.5716,0 97,43.42838 97,97.00001 z"
         style="fill:#ffffff;fill-opacity:1;stroke:#000000;stroke-width:3;stroke-linecap:round;stroke-linejoin:round;stroke-miterlimit:4;stroke-opacity:1"
         inkscape:connector-curvature="0" />
      <path
         inkscape:export-ydpi="300.13257"
         inkscape:export-xdpi="300.13257"
         inkscape:export-filename="C:\Users\Chris\Pictures\constuff\VPE\VPE_logo2.png"
         id="path3891"
         d="m 103.789,940.5355 c -16.3247,0 -28.3778,7.9737 -34.625,14.125 l 0,21.1875 c 15.0821,2.5479 18.3003,-14.125 34.625,-14.125 16.3248,0 18.3003,14.125 34.625,14.125 16.3247,0 18.3002,-14.125 34.625,-14.125 10.2353,0 14.8465,5.54537 20.875,9.6875 1.0398,-5.69087 1.5938,-11.57135 1.5938,-17.5625 0,-0.87938 -0.01,-1.75124 -0.031,-2.625 -6.8533,-4.17986 -11.3392,-10.6875 -22.4375,-10.6875 -16.3248,0 -18.3003,14.125 -34.625,14.125 -16.3247,0 -18.3002,-14.125 -34.625,-14.125 z"
         style="fill:#006b98;fill-opacity:1;stroke:none"
         inkscape:connector-curvature="0" />
      <path
         inkscape:export-ydpi="300.13257"
         inkscape:export-xdpi="300.13257"
         inkscape:export-filename="C:\Users\Chris\Pictures\constuff\VPE\VPE_logo2.png"
         id="path3893"
         d="m 98.5078,856.848 c -9.4716,0 -18.6278,1.37515 -27.2813,3.90625 -0.7471,0.64769 -1.4322,1.28558 -2.0625,1.90625 l 0,21.1875 c 15.0821,2.5479 18.3003,-14.125 34.625,-14.125 16.3248,0 18.3003,14.125 34.625,14.125 8.6577,0 13.2882,-3.95604 18.1562,-7.6875 C 140.3804,864.04145 120.287,856.848 98.5078,856.848 z"
         style="fill:#006b98;fill-opacity:1;stroke:none"
         inkscape:connector-curvature="0" />
      <path
         inkscape:export-ydpi="300.13257"
         inkscape:export-xdpi="300.13257"
         inkscape:export-filename="C:\Users\Chris\Pictures\constuff\VPE\VPE_logo2.png"
         id="path3895"
         d="m 103.789,894.5355 c -16.3247,0 -28.3778,7.9737 -34.625,14.125 l 0,21.1875 c 15.0821,2.5479 18.3003,-14.125 34.625,-14.125 16.3248,0 18.3003,14.125 34.625,14.125 16.3247,0 18.3002,-14.125 34.625,-14.125 8.2154,0 12.8,3.57123 17.4062,7.125 -3.4688,-10.28585 -8.626,-19.80245 -15.125,-28.21875 -0.7288,-0.0635 -1.4879,-0.0937 -2.2812,-0.0937 -16.3248,0 -18.3003,14.125 -34.625,14.125 -16.3247,0 -18.3002,-14.125 -34.625,-14.125 z"
         style="fill:#006b98;fill-opacity:1;stroke:none"
         inkscape:connector-curvature="0" />
      <path
         inkscape:export-ydpi="300.13257"
         inkscape:export-xdpi="300.13257"
         inkscape:export-filename="C:\Users\Chris\Pictures\constuff\VPE\VPE_logo2.png"
         id="path3897"
         d="m 103.789,1030.5355 c -16.3247,0 -28.3778,7.9737 -34.625,14.125 l 0,1.6875 c 9.2563,2.934 19.1165,4.5 29.3438,4.5 12.4474,0 24.3465,-2.3221 35.2812,-6.5937 -12.2635,-2.3422 -15.3577,-13.7188 -30,-13.7188 z"
         style="fill:#006b98;fill-opacity:1;stroke:none"
         inkscape:connector-curvature="0" />
      <path
         inkscape:export-ydpi="300.13257"
         inkscape:export-xdpi="300.13257"
         inkscape:export-filename="C:\Users\Chris\Pictures\constuff\VPE\VPE_logo2.png"
         id="path3899"
         d="m 103.789,986.5355 c -16.3247,0 -28.3778,7.9737 -34.625,14.125 l 0,21.1875 c 15.0821,2.5479 18.3003,-14.125 34.625,-14.125 16.3248,0 18.3003,14.125 34.625,14.125 16.3247,0 18.3002,-14.125 34.625,-14.125 2.1322,0 4.012,0.2373 5.7188,0.6562 3.5489,-5.2138 6.602,-10.78208 9.0937,-16.6562 -3.8461,-2.79943 -8.1233,-5.1875 -14.8125,-5.1875 -16.3248,0 -18.3003,14.125 -34.625,14.125 -16.3247,0 -18.3002,-14.125 -34.625,-14.125 z"
         style="fill:#006b98;fill-opacity:1;stroke:none"
         inkscape:connector-curvature="0" />
      <path
         inkscape:export-ydpi="300.13257"
         inkscape:export-xdpi="300.13257"
         inkscape:export-filename="C:\Users\Chris\Pictures\constuff\VPE\VPE_logo2.png"
         id="rect3901"
         d="m 77.789,859.098 c -43.6186,9.48879 -76.2812,48.28802 -76.2812,94.75 0,47.8761 34.6688,87.6775 80.2812,95.5938 L 139.6015,957.44175 77.789,859.098 z"
         style="fill:#37833b;fill-opacity:1;stroke:#000000;stroke-width:3;stroke-linecap:round;stroke-linejoin:round;stroke-miterlimit:4;stroke-opacity:1;stroke-dasharray:none"
         inkscape:connector-curvature="0" />
      <path
         inkscape:export-ydpi="300.13257"
         inkscape:export-xdpi="300.13257"
         inkscape:export-filename="C:\Users\Chris\Pictures\constuff\VPE\VPE_logo2.png"
         id="path3905"
         d="m 195.5001,953.86222 c 0,53.57158 -43.4284,96.99998 -97,96.99998 -53.5717,0 -97.0001,-43.4284 -97.0001,-96.99998 0,-53.57163 43.4284,-97.00001 97.0001,-97.00001 53.5716,0 97,43.42838 97,97.00001 z"
         style="fill:none;stroke:#000000;stroke-width:3;stroke-linecap:round;stroke-linejoin:round;stroke-miterlimit:4;stroke-opacity:1"
         inkscape:connector-curvature="0" />
      <path
         inkscape:connector-curvature="0"
         id="path4292"
         d="m 61.90625,1001.3294 c -3.320175,0.031 -6.496498,-0.4356 -9.5,-1.40625 -0.09397,-0.0283 -0.187554,-0.0646 -0.28125,-0.0937 -0.324695,-0.10886 -0.648558,-0.22263 -0.96875,-0.34375 -0.0707,-0.0245 -0.148223,-0.0374 -0.21875,-0.0625 -8.960554,-3.18445 -16.4817,-10.51562 -19.03125,-23.09375 -5.5236,-17.5 7,-45 7,-45 l -17,2 0,-12 30,0 c 0,0 -0.167007,0.29883 -0.46875,0.875 -2.112201,4.0332 -10.5067,21 -9.53125,34.125 1.1148,15 9.4591,25 20,25 10.541,0 18.8853,-10 20,-25 1.1148,-15 -10,-35 -10,-35 l 30,0 0,12 -17,-2 c 0,0 12.5236,27.5 7,45 -2.474115,12.20597 -9.640187,19.45105 -18.25,22.78125 -0.324874,0.13764 -0.670199,0.2817 -1,0.40625 -0.207762,0.072 -0.415775,0.11991 -0.625,0.1875 -0.108213,0.0379 -0.203788,0.0885 -0.3125,0.125 -0.0937,0.0291 -0.187284,0.0655 -0.28125,0.0937 -3.003502,0.97065 -6.211075,1.43745 -9.53125,1.40625 z"
         style="fill:#ffce00;fill-opacity:1;stroke:#ffce00;stroke-width:3;stroke-linecap:butt;stroke-linejoin:round;stroke-miterlimit:4;stroke-opacity:1;stroke-dasharray:none" />
      <path
         inkscape:export-ydpi="300.13257"
         inkscape:export-xdpi="300.13257"
         inkscape:export-filename="C:\Users\Chris\Pictures\constuff\VPE\VPE_logo2.png"
         id="path3955"
         d="m 85.414,977.82514 c 0,-1.38071 -1.1193,-2.5 -2.5,-2.5 -1.3807,0 -2.5,1.11929 -2.5,2.5 0,1.38071 1.1193,2.5 2.5,2.5 1.3807,0 2.5,-1.11929 2.5,-2.5 z"
         style="fill:#000000;fill-opacity:1;stroke:none"
         inkscape:connector-curvature="0" />
      <path
         inkscape:export-ydpi="300.13257"
         inkscape:export-xdpi="300.13257"
         inkscape:export-filename="C:\Users\Chris\Pictures\constuff\VPE\VPE_logo2.png"
         id="path3957"
         d="m 43.414,977.82514 c 0,-1.38071 -1.1193,-2.5 -2.5,-2.5 -1.3807,0 -2.5,1.11929 -2.5,2.5 0,1.38071 1.1193,2.5 2.5,2.5 1.3807,0 2.5,-1.11929 2.5,-2.5 z"
         style="fill:#000000;fill-opacity:1;stroke:none"
         inkscape:connector-curvature="0" />
      <path
         inkscape:export-ydpi="300.13257"
         inkscape:export-xdpi="300.13257"
         inkscape:export-filename="C:\Users\Chris\Pictures\constuff\VPE\VPE_logo2.png"
         id="path3959"
         d="m 64.414,991.82514 c 0,-1.38071 -1.1193,-2.5 -2.5,-2.5 -1.3807,0 -2.5,1.11929 -2.5,2.5 0,1.38071 1.1193,2.5 2.5,2.5 1.3807,0 2.5,-1.11929 2.5,-2.5 z"
         style="fill:#000000;fill-opacity:1;stroke:none"
         inkscape:connector-curvature="0" />
      <path
         inkscape:export-ydpi="300.13257"
         inkscape:export-xdpi="300.13257"
         inkscape:export-filename="C:\Users\Chris\Pictures\constuff\VPE\VPE_logo2.png"
         id="path3961"
         d="m 36.7421,926.15326 c 0,-1.00964 -0.8185,-1.82812 -1.8281,-1.82812 -1.0096,0 -1.8281,0.81848 -1.8281,1.82812 0,1.00965 0.8185,1.82813 1.8281,1.82813 1.0096,0 1.8281,-0.81848 1.8281,-1.82813 z"
         style="fill:#000000;fill-opacity:1;stroke:none"
         inkscape:connector-curvature="0" />
      <path
         inkscape:export-ydpi="300.13257"
         inkscape:export-xdpi="300.13257"
         inkscape:export-filename="C:\Users\Chris\Pictures\constuff\VPE\VPE_logo2.png"
         id="path3999"
         d="m 90.7421,926.15326 c 0,-1.00964 -0.8185,-1.82812 -1.8281,-1.82812 -1.0096,0 -1.8281,0.81848 -1.8281,1.82812 0,1.00965 0.8185,1.82813 1.8281,1.82813 1.0096,0 1.8281,-0.81848 1.8281,-1.82813 z"
         style="fill:#000000;fill-opacity:1;stroke:none"
         inkscape:connector-curvature="0" />
      <path
         inkscape:export-ydpi="300.13257"
         inkscape:export-xdpi="300.13257"
         inkscape:export-filename="C:\Users\Chris\Pictures\constuff\VPE\VPE_logo2.png"
         id="path4001"
         d="m 88.914,955.32514 c 0,-1.10457 -0.8954,-2 -2,-2 -1.1046,0 -2,0.89543 -2,2 0,1.10457 0.8954,2 2,2 1.1046,0 2,-0.89543 2,-2 z"
         style="fill:#000000;fill-opacity:1;stroke:none"
         inkscape:connector-curvature="0" />
      <path
         inkscape:export-ydpi="300.13257"
         inkscape:export-xdpi="300.13257"
         inkscape:export-filename="C:\Users\Chris\Pictures\constuff\VPE\VPE_logo2.png"
         id="path4003"
         d="m 38.914,955.32514 c 0,-1.10457 -0.8954,-2 -2,-2 -1.1046,0 -2,0.89543 -2,2 0,1.10457 0.8954,2 2,2 1.1046,0 2,-0.89543 2,-2 z"
         style="fill:#000000;fill-opacity:1;stroke:none"
         inkscape:connector-curvature="0" />
    </g>
  </g>
</svg>
