<?xml version="1.0" encoding="UTF-8" standalone="no"?>
<!-- Created with Inkscape (http://www.inkscape.org/) -->

<svg
   xmlns:dc="http://purl.org/dc/elements/1.1/"
   xmlns:cc="http://creativecommons.org/ns#"
   xmlns:rdf="http://www.w3.org/1999/02/22-rdf-syntax-ns#"
   xmlns:svg="http://www.w3.org/2000/svg"
   xmlns="http://www.w3.org/2000/svg"
   xmlns:sodipodi="http://sodipodi.sourceforge.net/DTD/sodipodi-0.dtd"
   xmlns:inkscape="http://www.inkscape.org/namespaces/inkscape"
   width="197"
   height="197"
   id="svg2"
   version="1.1"
   inkscape:version="0.48.2 r9819"
   sodipodi:docname="VPE_logo_BW.svg">
  <defs
     id="defs4" />
  <sodipodi:namedview
     id="base"
     pagecolor="#ffffff"
     bordercolor="#666666"
     borderopacity="1.0"
     inkscape:pageopacity="0.0"
     inkscape:pageshadow="2"
     inkscape:zoom="2.8284271"
     inkscape:cx="170.52728"
     inkscape:cy="85.135807"
     inkscape:document-units="px"
     inkscape:current-layer="layer1"
     showgrid="false"
     inkscape:window-width="1920"
     inkscape:window-height="1148"
     inkscape:window-x="1912"
     inkscape:window-y="-8"
     inkscape:window-maximized="1">
    <inkscape:grid
       type="xygrid"
       id="grid3759"
       empspacing="5"
       visible="true"
       enabled="true"
       snapvisiblegridlinesonly="true" />
  </sodipodi:namedview>
  <metadata
     id="metadata7">
    <rdf:RDF>
      <cc:Work
         rdf:about="">
        <dc:format>image/svg+xml</dc:format>
        <dc:type
           rdf:resource="http://purl.org/dc/dcmitype/StillImage" />
        <dc:title></dc:title>
      </cc:Work>
    </rdf:RDF>
  </metadata>
  <g
     inkscape:label="Layer 1"
     inkscape:groupmode="layer"
     id="layer1"
     transform="translate(0,-855.36217)">
    <g
       id="g4106"
       inkscape:export-filename="C:\Users\Chris\Documents\Cons (Staffing)\VPE\Risto_Logo\VPE_logo_alpha.png"
       inkscape:export-xdpi="300.13257"
       inkscape:export-ydpi="300.13257">
      <path
         id="path3932"
         transform="translate(0,855.36217)"
         d="M 88.59375 2 C 87.945942 2.0658 87.300226 2.14028 86.65625 2.21875 C 87.365969 2.13155 88.066915 2.07171 88.78125 2 C 88.71901 2.006 88.655958 1.994 88.59375 2 z M 77.65625 2.21875 A 1.50015 1.50015 0 0 0 77.46875 2.25 C 33.172225 11.88632 0 51.30377 0 98.46875 C 0 147.069 35.210414 187.49205 81.53125 195.53125 A 1.50015 1.50015 0 0 0 83.0625 194.875 L 94.9375 175.96875 C 97.725819 175.45815 100.67253 175.1875 103.78125 175.1875 C 118.41144 175.1875 121.51179 186.55105 133.75 188.90625 L 133.78125 188.90625 C 152.1407 181.73415 167.77713 169.09205 178.71875 153.03125 C 177.0197 152.61685 175.15132 152.375 173.03125 152.375 C 156.70645 152.375 154.73095 166.5 138.40625 166.5 C 124.16211 166.5 120.83454 155.7411 109.375 153 L 119.4375 136.96875 C 124.61928 140.86673 129.26464 145.3125 138.40625 145.3125 C 154.73095 145.3125 156.70645 131.1875 173.03125 131.1875 C 179.70853 131.1875 183.97171 133.58203 187.8125 136.375 C 190.54862 129.93223 192.61272 123.12972 193.90625 116.0625 C 187.87775 111.92037 183.26655 106.375 173.03125 106.375 C 156.70645 106.375 154.73095 120.5 138.40625 120.5 C 135.37437 120.5 132.85083 120.01221 130.625 119.21875 L 140.875 102.875 A 1.50015 1.50015 0 0 0 140.875 101.28125 L 139.59375 99.25 C 154.83882 98.58497 157.1105 85.1875 173.03125 85.1875 C 184.12955 85.1875 188.61545 91.69514 195.46875 95.875 C 195.20556 85.98065 193.4502 76.44192 190.4375 67.5 C 185.8313 63.94623 181.24665 60.375 173.03125 60.375 C 156.70645 60.375 154.73095 74.5 138.40625 74.5 C 128.56524 74.5 123.9489 69.35866 118.25 65.28125 L 101.875 39.21875 C 102.50968 39.19425 103.133 39.1875 103.78125 39.1875 C 120.10605 39.1875 122.08155 53.3125 138.40625 53.3125 C 154.73095 53.3125 156.70645 39.1875 173.03125 39.1875 C 173.82455 39.1875 174.5837 39.21785 175.3125 39.28125 C 169.92908 32.30957 163.6167 26.09299 156.5625 20.8125 C 151.6945 24.54396 147.06395 28.5 138.40625 28.5 C 122.08155 28.5 120.10605 14.375 103.78125 14.375 C 97.601398 14.375 93.309251 16.76231 89.53125 19.59375 L 79.0625 2.9375 A 1.50015 1.50015 0 0 0 77.65625 2.21875 z M 114.46875 2.8125 C 115.67364 3.01266 116.87308 3.22455 118.0625 3.46875 C 116.87854 3.22648 115.668 3.0112 114.46875 2.8125 z M 118.34375 3.53125 C 119.44811 3.76142 120.56603 4.01383 121.65625 4.28125 C 120.55675 4.01198 119.45761 3.76268 118.34375 3.53125 z M 77.09375 5.4375 L 137.84375 102.09375 L 81.09375 192.375 C 36.661416 184.1959 3 145.2861 3 98.46875 C 3 53.07017 34.66109 15.15469 77.09375 5.4375 z M 177.6875 42.5 C 178.37848 43.47465 179.06314 44.43666 179.71875 45.4375 C 179.06868 44.44465 178.37256 43.46711 177.6875 42.5 z M 185.9375 56.4375 C 186.44013 57.47879 186.90898 58.53221 187.375 59.59375 C 186.91241 58.53886 186.43615 57.47237 185.9375 56.4375 z M 195.0625 107.5625 C 194.93378 108.94262 194.77923 110.29391 194.59375 111.65625 C 194.77766 110.30077 194.93519 108.93517 195.0625 107.5625 z "
         style="font-size:medium;font-style:normal;font-variant:normal;font-weight:normal;font-stretch:normal;text-indent:0;text-align:start;text-decoration:none;line-height:normal;letter-spacing:normal;word-spacing:normal;text-transform:none;direction:ltr;block-progression:tb;writing-mode:lr-tb;text-anchor:start;baseline-shift:baseline;color:#000000;fill:#000000;fill-opacity:1;fill-rule:nonzero;stroke:none;stroke-width:3;marker:none;visibility:visible;display:inline;overflow:visible;enable-background:accumulate;font-family:Sans;-inkscape-font-specification:Sans" />
      <path
         inkscape:export-ydpi="300.13257"
         inkscape:export-xdpi="300.13257"
         inkscape:export-filename="C:\Users\Chris\Pictures\constuff\VPE\VPE_logo2.png"
         id="path3905"
         d="m 195.5001,953.86222 c 0,53.57158 -43.4284,96.99998 -97,96.99998 -53.5717,0 -97.0001,-43.4284 -97.0001,-96.99998 0,-53.57163 43.4284,-97.00001 97.0001,-97.00001 53.5716,0 97,43.42838 97,97.00001 z"
         style="fill:none;stroke:#000000;stroke-width:3;stroke-linecap:round;stroke-linejoin:round;stroke-miterlimit:4;stroke-opacity:1"
         inkscape:connector-curvature="0" />
      <path
         id="path4292"
         d="m 21.75,919.83092 a 1.50015,1.50015 0 0 0 -1.34375,1.5 l 0,12 a 1.50015,1.50015 0 0 0 1.6875,1.46875 l 14.46875,-1.6875 c -1.029077,2.44651 -2.855941,6.94859 -4.6875,13.75 -2.461368,9.14018 -4.298226,20.50149 -1.4375,29.75 0.01091,0.0538 0.02016,0.1026 0.03125,0.15625 2.673915,12.9333 10.612091,20.73723 19.96875,24.06248 0.244697,0.087 0.31467,0.096 0.21875,0.062 0.329968,0.1242 0.674031,0.2345 1,0.3438 a 1.50015,1.50015 0 0 0 0.03125,0 c 0.0229,0.01 0.11975,0.053 0.25,0.094 0.01008,0 0.0288,-0.01 0.03125,0 3.155583,1.0162 6.478406,1.5322 9.9375,1.5 3.45936,0.033 6.810135,-0.4829 9.96875,-1.5 0.0024,-0.01 0.02107,0 0.03125,0 0.13156,-0.041 0.227911,-0.087 0.25,-0.094 a 1.50015,1.50015 0 0 0 0.03125,0 c 0.233401,-0.078 0.316468,-0.1238 0.3125,-0.125 l 0.03125,0 c 0.131608,-0.041 0.332542,-0.086 0.625,-0.1875 a 1.50015,1.50015 0 0 0 0.03125,-0.031 c 0.363681,-0.1373 0.732233,-0.2664 1.0625,-0.4063 l 0,-0.031 c 8.964527,-3.49027 16.505287,-11.1673 19.09375,-23.68748 0.009,-0.0433 0.02241,-0.0815 0.03125,-0.125 0.003,-0.01 -0.003,-0.0216 0,-0.0312 2.860726,-9.24851 1.023868,-20.60982 -1.4375,-29.75 -1.831559,-6.80156 -3.658423,-11.30364 -4.6875,-13.75015 l 14.46875,1.6875 a 1.50015,1.50015 0 0 0 1.6875,-1.46875 l 0,-12 a 1.50015,1.50015 0 0 0 -1.5,-1.5 l -30,0 a 1.50015,1.50015 0 0 0 -1.3125,2.21875 c 0,0 2.743436,4.91418 5.34375,11.6875 2.600314,6.77332 4.995189,15.38533 4.46875,22.46875 -0.538676,7.24871 -2.81624,13.19554 -6.125,17.28125 -3.30876,4.08571 -7.578838,6.34375 -12.375,6.34375 -4.796107,0 -9.066238,-2.25804 -12.375,-6.34375 -3.308762,-4.08571 -5.586276,-10.03254 -6.125,-17.28125 -0.921226,-12.3954 7.307128,-29.36395 9.375,-33.3125 0.295103,-0.56349 0.4375,-0.84375 0.4375,-0.84375 a 1.50015,1.50015 0 0 0 -1.3125,-2.21875 l -30,0 a 1.50015,1.50015 0 0 0 -0.15625,0 z m 13.15625,4.5 c 1.0096,0 1.84375,0.80286 1.84375,1.8125 0,1.00965 -0.83415,1.84375 -1.84375,1.84375 -1.0096,0 -1.8125,-0.8341 -1.8125,-1.84375 0,-1.00964 0.8029,-1.8125 1.8125,-1.8125 z m 54,0 c 1.0096,0 1.84375,0.80286 1.84375,1.8125 0,1.00965 -0.83415,1.84375 -1.84375,1.84375 -1.0096,0 -1.8125,-0.8341 -1.8125,-1.84375 0,-1.00964 0.8029,-1.8125 1.8125,-1.8125 z m -52,29 c 1.1046,0 2,0.89543 2,2 0,1.10457 -0.8954,2 -2,2 -1.1046,0 -2,-0.89543 -2,-2 0,-1.10457 0.8954,-2 2,-2 z m 50,0 c 1.1046,0 2,0.89543 2,2 0,1.10457 -0.8954,2 -2,2 -1.1046,0 -2,-0.89543 -2,-2 0,-1.10457 0.8954,-2 2,-2 z m -46,22 c 1.3807,0 2.5,1.11929 2.5,2.5 0,1.38071 -1.1193,2.5 -2.5,2.5 -1.3807,0 -2.5,-1.11929 -2.5,-2.5 0,-1.38071 1.1193,-2.5 2.5,-2.5 z m 42,0 c 1.3807,0 2.5,1.11929 2.5,2.5 0,1.38071 -1.1193,2.5 -2.5,2.5 -1.3807,0 -2.5,-1.11929 -2.5,-2.5 0,-1.38071 1.1193,-2.5 2.5,-2.5 z m -21,14 c 1.3807,0 2.5,1.11929 2.5,2.5 0,1.38071 -1.1193,2.5 -2.5,2.5 -1.3807,0 -2.5,-1.11929 -2.5,-2.5 0,-1.38071 1.1193,-2.5 2.5,-2.5 z"
         style="fill:#000000;fill-opacity:1;stroke:none"
         inkscape:connector-curvature="0" />
    </g>
  </g>
</svg>
